<svg xmlns="http://www.w3.org/2000/svg" viewBox="0 0 389.38 182.94" width="389" height="183" role="img" aria-label="Nippon Speed Co.">
  <g fill="#f5f5f5">
        <g transform="translate(0.00 85.94) scale(0.048828 -0.048828)"><path d="M78 0V1760H440L602 917V1760H942V0H598L422 880V0Z"/></g>
    <g transform="translate(52.00 85.94) scale(0.048828 -0.048828)"><path d="M62 0V1760H402V0Z"/></g>
    <g transform="translate(76.86 85.94) scale(0.048828 -0.048828)"><path d="M78 0V1760H543Q689 1760 774.5 1695.0Q860 1630 897.0 1510.0Q934 1390 934 1224Q934 1064 903.0 945.5Q872 827 792.5 762.0Q713 697 567 697H424V0ZM424 1013H444Q542 1013 564.0 1068.0Q586 1123 586 1230Q586 1330 564.5 1384.5Q543 1439 463 1439H424Z"/></g>
    <g transform="translate(126.28 85.94) scale(0.048828 -0.048828)"><path d="M78 0V1760H543Q689 1760 774.5 1695.0Q860 1630 897.0 1510.0Q934 1390 934 1224Q934 1064 903.0 945.5Q872 827 792.5 762.0Q713 697 567 697H424V0ZM424 1013H444Q542 1013 564.0 1068.0Q586 1123 586 1230Q586 1330 564.5 1384.5Q543 1439 463 1439H424Z"/></g>
    <g transform="translate(175.69 85.94) scale(0.048828 -0.048828)"><path d="M498 -16Q287 -16 175.5 111.5Q64 239 64 480V1316Q64 1542 174.5 1659.0Q285 1776 498 1776Q711 1776 821.5 1659.0Q932 1542 932 1316V480Q932 239 820.5 111.5Q709 -16 498 -16ZM501 308Q581 308 581 463V1322Q581 1452 503 1452Q415 1452 415 1319V461Q415 379 435.0 343.5Q455 308 501 308Z"/></g>
    <g transform="translate(226.53 85.94) scale(0.048828 -0.048828)"><path d="M78 0V1760H440L602 917V1760H942V0H598L422 880V0Z"/></g>
        <g transform="translate(0.00 182.94) scale(0.048828 -0.048828)"><path d="M496 -16Q255 -16 148.5 104.0Q42 224 42 486V658H390V438Q390 377 408.5 342.5Q427 308 473 308Q521 308 539.5 336.0Q558 364 558 428Q558 509 542.0 563.5Q526 618 486.5 667.5Q447 717 377 783L219 933Q42 1100 42 1315Q42 1540 146.5 1658.0Q251 1776 449 1776Q691 1776 792.5 1647.0Q894 1518 894 1255H536V1376Q536 1412 515.5 1432.0Q495 1452 460 1452Q418 1452 398.5 1428.5Q379 1405 379 1368Q379 1331 399.0 1288.0Q419 1245 478 1189L681 994Q742 936 793.0 871.5Q844 807 875.0 721.5Q906 636 906 513Q906 265 814.5 124.5Q723 -16 496 -16Z"/></g>
    <g transform="translate(49.84 182.94) scale(0.048828 -0.048828)"><path d="M78 0V1760H543Q689 1760 774.5 1695.0Q860 1630 897.0 1510.0Q934 1390 934 1224Q934 1064 903.0 945.5Q872 827 792.5 762.0Q713 697 567 697H424V0ZM424 1013H444Q542 1013 564.0 1068.0Q586 1123 586 1230Q586 1330 564.5 1384.5Q543 1439 463 1439H424Z"/></g>
    <g transform="translate(100.76 182.94) scale(0.048828 -0.048828)"><path d="M78 0V1760H782V1420H436V1077H768V746H436V343H805V0Z"/></g>
    <g transform="translate(145.62 182.94) scale(0.048828 -0.048828)"><path d="M78 0V1760H782V1420H436V1077H768V746H436V343H805V0Z"/></g>
    <g transform="translate(190.48 182.94) scale(0.048828 -0.048828)"><path d="M78 0V1760H562Q752 1760 848.0 1654.5Q944 1549 944 1346V522Q944 272 856.5 136.0Q769 0 550 0ZM432 311H493Q590 311 590 405V1313Q590 1401 566.5 1426.5Q543 1452 471 1452H432Z"/></g>
    <g transform="translate(270.64 182.94) scale(0.048828 -0.048828)"><path d="M488 -16Q297 -16 180.5 103.0Q64 222 64 436V1248Q64 1504 165.5 1640.0Q267 1776 496 1776Q621 1776 718.5 1730.0Q816 1684 872.0 1592.5Q928 1501 928 1362V1058H578V1318Q578 1397 558.0 1424.5Q538 1452 496 1452Q447 1452 430.0 1416.5Q413 1381 413 1322V441Q413 368 434.5 338.0Q456 308 496 308Q541 308 559.5 345.0Q578 382 578 441V758H932V425Q932 193 815.0 88.5Q698 -16 488 -16Z"/></g>
    <g transform="translate(321.75 182.94) scale(0.048828 -0.048828)"><path d="M498 -16Q287 -16 175.5 111.5Q64 239 64 480V1316Q64 1542 174.5 1659.0Q285 1776 498 1776Q711 1776 821.5 1659.0Q932 1542 932 1316V480Q932 239 820.5 111.5Q709 -16 498 -16ZM501 308Q581 308 581 463V1322Q581 1452 503 1452Q415 1452 415 1319V461Q415 379 435.0 343.5Q455 308 501 308Z"/></g>
    <rect x="372.38" y="165.94" width="17.00" height="17.00"/>
  </g>
  <circle cx="329.18" cy="42.97" r="37.85" fill="#e60000"/>
</svg>
